<?xml version="1.0" encoding="UTF-8"?>
<mxfile host="app.diagrams.net">
  <diagram name="Bank Management System Activity Diagram" id="activityDiagram1">
    <mxGraphModel dx="1136" dy="704" grid="1" gridSize="10" guides="1" tooltips="1" connect="1" arrows="1" fold="1" page="1" pageScale="1" pageWidth="827" pageHeight="1169">
      <root>
        <mxCell id="0"/>
        <mxCell id="1" parent="0"/>
        <!-- Start -->
        <mxCell id="2" value="Start" style="ellipse;whiteSpace=wrap;html=1;fillColor=#d5e8d4;" vertex="1" parent="1">
          <mxGeometry x="300" y="20" width="120" height="60" as="geometry"/>
        </mxCell>
        <!-- Login -->
        <mxCell id="3" value="Login" style="rounded=1;whiteSpace=wrap;html=1;fillColor=#dae8fc;" vertex="1" parent="1">
          <mxGeometry x="300" y="100" width="120" height="60" as="geometry"/>
        </mxCell>
        <!-- Is Login Successful? -->
        <mxCell id="4" value="Is Login Successful?" style="rhombus;whiteSpace=wrap;html=1;fillColor=#fff2cc;" vertex="1" parent="1">
          <mxGeometry x="300" y="180" width="120" height="60" as="geometry"/>
        </mxCell>
        <!-- Dashboard -->
        <mxCell id="5" value="Display Dashboard" style="rounded=1;whiteSpace=wrap;html=1;fillColor=#e1d5e7;" vertex="1" parent="1">
          <mxGeometry x="300" y="260" width="140" height="60" as="geometry"/>
        </mxCell>
        <!-- Choose Action -->
        <mxCell id="6" value="Choose Action" style="rounded=1;whiteSpace=wrap;html=1;fillColor=#f8cecc;" vertex="1" parent="1">
          <mxGeometry x="300" y="340" width="140" height="60" as="geometry"/>
        </mxCell>
        <!-- Action Boxes -->
        <mxCell id="7" value="Account Creation" style="rounded=1;whiteSpace=wrap;html=1;" vertex="1" parent="1">
          <mxGeometry x="100" y="440" width="120" height="60" as="geometry"/>
        </mxCell>
        <mxCell id="8" value="Deposit" style="rounded=1;whiteSpace=wrap;html=1;" vertex="1" parent="1">
          <mxGeometry x="250" y="440" width="100" height="60" as="geometry"/>
        </mxCell>
        <mxCell id="9" value="Withdraw" style="rounded=1;whiteSpace=wrap;html=1;" vertex="1" parent="1">
          <mxGeometry x="370" y="440" width="100" height="60" as="geometry"/>
        </mxCell>
        <mxCell id="10" value="Loan Application" style="rounded=1;whiteSpace=wrap;html=1;" vertex="1" parent="1">
          <mxGeometry x="490" y="440" width="130" height="60" as="geometry"/>
        </mxCell>
        <mxCell id="11" value="View Status" style="rounded=1;whiteSpace=wrap;html=1;" vertex="1" parent="1">
          <mxGeometry x="300" y="520" width="120" height="60" as="geometry"/>
        </mxCell>
        <!-- Logout -->
        <mxCell id="12" value="Logout" style="rounded=1;whiteSpace=wrap;html=1;fillColor=#dae8fc;" vertex="1" parent="1">
          <mxGeometry x="300" y="600" width="120" height="60" as="geometry"/>
        </mxCell>
        <!-- End -->
        <mxCell id="13" value="End" style="ellipse;whiteSpace=wrap;html=1;fillColor=#d5e8d4;" vertex="1" parent="1">
          <mxGeometry x="300" y="680" width="120" height="60" as="geometry"/>
        </mxCell>

        <!-- Connectors -->
        <mxCell id="e1" style="endArrow=block;" edge="1" parent="1" source="2" target="3"><mxGeometry relative="1" as="geometry"/></mxCell>
        <mxCell id="e2" style="endArrow=block;" edge="1" parent="1" source="3" target="4"><mxGeometry relative="1" as="geometry"/></mxCell>
        <mxCell id="e3" style="endArrow=block;" edge="1" parent="1" source="4" target="5"><mxGeometry relative="1" as="geometry"/></mxCell>
        <mxCell id="e4" style="endArrow=block;" edge="1" parent="1" source="5" target="6"><mxGeometry relative="1" as="geometry"/></mxCell>
        <mxCell id="e5" style="endArrow=block;" edge="1" parent="1" source="6" target="7"><mxGeometry relative="1" as="geometry"/></mxCell>
        <mxCell id="e6" style="endArrow=block;" edge="1" parent="1" source="6" target="8"><mxGeometry relative="1" as="geometry"/></mxCell>
        <mxCell id="e7" style="endArrow=block;" edge="1" parent="1" source="6" target="9"><mxGeometry relative="1" as="geometry"/></mxCell>
        <mxCell id="e8" style="endArrow=block;" edge="1" parent="1" source="6" target="10"><mxGeometry relative="1" as="geometry"/></mxCell>
        <mxCell id="e9" style="endArrow=block;" edge="1" parent="1" source="6" target="11"><mxGeometry relative="1" as="geometry"/></mxCell>
        <mxCell id="e10" style="endArrow=block;" edge="1" parent="1" source="11" target="12"><mxGeometry relative="1" as="geometry"/></mxCell>
        <mxCell id="e11" style="endArrow=block;" edge="1" parent="1" source="12" target="13"><mxGeometry relative="1" as="geometry"/></mxCell>
      </root>
    </mxGraphModel>
  </diagram>
</mxfile>
